<svg width="51" height="41" viewBox="0 0 51 41" fill="none" xmlns="http://www.w3.org/2000/svg">
<g clip-path="url(#clip0_1_6450)">
<path d="M50.7415 39.4405L27.6608 -0.549617C27.3152 -1.14206 26.6857 -1.5 26.0068 -1.5C25.328 -1.5 24.6862 -1.14206 24.3529 -0.549617L1.25987 39.4405C0.914273 40.033 0.914273 40.7612 1.25987 41.3536C1.60546 41.9461 2.23493 42.304 2.91378 42.304H49.0876C49.7664 42.304 50.4082 41.9461 50.7415 41.3536C51.0747 40.7612 51.0871 40.033 50.7415 39.4405ZM6.2216 38.4901L26.0068 4.23932L45.7797 38.4901H6.2216ZM17.8854 33.7382C17.8854 35.3921 16.54 36.7251 14.8985 36.7251C13.2569 36.7251 11.8992 35.3798 11.8992 33.7382C11.8992 32.0966 13.2446 30.739 14.8985 30.739C16.5524 30.739 17.8854 32.0843 17.8854 33.7382ZM28.9938 33.7382C28.9938 35.3921 27.6484 36.7251 26.0068 36.7251C24.3653 36.7251 23.0076 35.3798 23.0076 33.7382C23.0076 32.0966 24.3529 30.739 26.0068 30.739C27.6608 30.739 28.9938 32.0843 28.9938 33.7382ZM26.0068 13.4593C27.6608 13.4593 28.9938 14.8046 28.9938 16.4585C28.9938 18.1124 27.6484 19.4454 26.0068 19.4454C24.3653 19.4454 23.0076 18.1001 23.0076 16.4585C23.0076 14.817 24.3529 13.4593 26.0068 13.4593ZM34.116 33.7382C34.116 32.0843 35.4613 30.739 37.1152 30.739C38.7691 30.739 40.1021 32.0843 40.1021 33.7382C40.1021 35.3921 38.7568 36.7251 37.1152 36.7251C35.4736 36.7251 34.116 35.3798 34.116 33.7382ZM23.4396 25.0984C23.4396 26.7523 22.0942 28.0853 20.4527 28.0853C18.8111 28.0853 17.4534 26.7399 17.4534 25.0984C17.4534 23.4568 18.7987 22.0991 20.4527 22.0991C22.1066 22.0991 23.4396 23.4445 23.4396 25.0984ZM28.5618 25.0984C28.5618 23.4445 29.9071 22.0991 31.561 22.0991C33.2149 22.0991 34.5479 23.4445 34.5479 25.0984C34.5479 26.7523 33.2026 28.0853 31.561 28.0853C29.9195 28.0853 28.5618 26.7399 28.5618 25.0984Z" fill="url(#paint0_linear_1_6450)"/>
</g>
<defs>
<linearGradient id="paint0_linear_1_6450" x1="25.9984" y1="-1.5" x2="25.9984" y2="42.304" gradientUnits="userSpaceOnUse">
<stop stop-color="#FF6864"/>
<stop offset="1" stop-color="#E90083"/>
</linearGradient>
<clipPath id="clip0_1_6450">
<rect width="50" height="40" fill="white" transform="translate(0.666687 0.5)"/>
</clipPath>
</defs>
</svg>
